<svg width="300" height="200" viewBox="0 0 300 200" fill="none" xmlns="http://www.w3.org/2000/svg">
<g clip-path="url(#clip0_4_1046)">
<ellipse cx="75.5" cy="55.6176" rx="49.0787" ry="48.8942" fill="#5E5E5E"/>
<path d="M273.82 204.888C273.82 191.921 268.649 179.484 259.445 170.315C250.241 161.145 237.758 155.994 224.741 155.994C211.725 155.994 199.241 161.145 190.037 170.315C180.833 179.484 175.663 191.921 175.663 204.888L224.741 204.888H273.82Z" fill="#5E5E5E"/>
<path fill-rule="evenodd" clip-rule="evenodd" d="M25.6885 99.2466H126.442V99.9998C126.442 127.815 103.88 150.376 76.065 150.376C48.2501 150.376 25.6885 127.815 25.6885 99.9998V99.2466ZM27.2004 100.753C27.6032 127.389 49.3335 148.87 76.065 148.87C102.797 148.87 124.527 127.389 124.93 100.753H27.2004Z" fill="#A6ABB3"/>
<path fill-rule="evenodd" clip-rule="evenodd" d="M174.559 199.247C174.559 171.432 197.12 148.87 224.935 148.87C252.75 148.87 275.312 171.432 275.312 199.247V200H174.559V199.247ZM176.071 198.493H273.8C273.397 171.857 251.667 150.376 224.935 150.376C198.204 150.376 176.473 171.857 176.071 198.493Z" fill="#A6ABB3"/>
<path fill-rule="evenodd" clip-rule="evenodd" d="M124.935 99.2466H125.688C153.503 99.2466 176.064 121.808 176.064 149.623C176.064 177.438 153.503 200 125.688 200H124.935V99.2466ZM126.441 100.759V198.488C153.077 198.085 174.558 176.355 174.558 149.623C174.558 122.892 153.077 101.161 126.441 100.759Z" fill="#A6ABB3"/>
<path fill-rule="evenodd" clip-rule="evenodd" d="M25.6885 50.3765C25.6885 22.524 48.2505 0 76.065 0H76.8181V100.753H76.065C48.2505 100.753 25.6885 78.229 25.6885 50.3765ZM75.3119 1.51196C48.6755 1.91403 27.1948 23.6085 27.1948 50.3765C27.1948 77.1446 48.6755 98.839 75.3119 99.2411V1.51196Z" fill="#A6ABB3"/>
<path fill-rule="evenodd" clip-rule="evenodd" d="M124.935 0H125.688C153.503 0 176.064 22.5616 176.064 50.3765C176.064 78.1914 153.503 100.753 125.688 100.753H124.935V0ZM126.441 1.51197V99.2411C153.077 98.8383 174.558 77.1081 174.558 50.3765C174.558 23.645 153.077 1.91471 126.441 1.51197Z" fill="#A6ABB3"/>
<path fill-rule="evenodd" clip-rule="evenodd" d="M75.3118 49.6233H126.441V50.3764C126.441 78.1913 103.88 100.753 76.0649 100.753H75.3118V49.6233ZM76.818 51.1296V99.241C103.203 98.842 124.531 77.5149 124.929 51.1296H76.818Z" fill="#A6ABB3"/>
<path fill-rule="evenodd" clip-rule="evenodd" d="M25.6885 148.87H76.8181V149.623C76.8181 177.438 54.2565 200 26.4416 200H25.6885V148.87ZM27.1948 150.377V198.488C53.5801 198.089 74.9072 176.762 75.3062 150.377H27.1948Z" fill="#A6ABB3"/>
<path fill-rule="evenodd" clip-rule="evenodd" d="M275.312 98.6665C275.312 126.915 252.431 149.847 224.18 149.847L224.18 147.279C251.014 147.279 272.746 125.498 272.746 98.6665L275.312 98.6665Z" fill="#C2F23C"/>
<path fill-rule="evenodd" clip-rule="evenodd" d="M225.739 149.823C197.49 149.823 174.558 126.943 174.558 98.6911L177.127 98.6911C177.127 125.525 198.908 147.257 225.739 147.257L225.739 149.823Z" fill="#C2F23C"/>
<path fill-rule="evenodd" clip-rule="evenodd" d="M126.442 50.1779C126.442 77.7864 104.08 100.198 76.4688 100.198V97.6884C102.694 97.6884 123.934 76.4011 123.934 50.1779H126.442Z" fill="#C2F23C"/>
<path fill-rule="evenodd" clip-rule="evenodd" d="M126.085 200C98.4769 200 76.0649 177.639 76.0649 150.027L78.5749 150.027C78.5749 176.253 99.8622 197.492 126.085 197.492L126.085 200Z" fill="#C2F23C"/>
<path fill-rule="evenodd" clip-rule="evenodd" d="M224.182 50.3765C224.182 22.5616 246.744 0 274.559 0H275.312V100.753H274.559C246.744 100.753 224.182 78.1914 224.182 50.3765ZM273.806 1.51197C247.17 1.91471 225.688 23.645 225.688 50.3765C225.688 77.1081 247.17 98.8383 273.806 99.2411V1.51197Z" fill="#A6ABB3"/>
<path fill-rule="evenodd" clip-rule="evenodd" d="M174.559 0H175.312C203.127 0 225.688 22.5616 225.688 50.3765C225.688 78.1914 203.127 100.753 175.312 100.753H174.559V0ZM176.065 1.51197V99.2411C202.701 98.8383 224.182 77.1081 224.182 50.3765C224.182 23.645 202.701 1.91471 176.065 1.51197Z" fill="#A6ABB3"/>
</g>
<defs>
<clipPath id="clip0_4_1046">
<rect width="300" height="200" fill="white"/>
</clipPath>
</defs>
</svg>
